/* XPM */
static char *dummy[]={
"64 64 622 2",
"Qt c None",
"#s c #ff0000",
"f6 c #ff0000",
"hk c #dc0000",
"dh c #830000",
"#D c #7c0000",
"hc c #8d0000",
"f0 c #a21f1f",
"dD c #5e0505",
"#T c #5a0f0f",
"fU c #7f3f3f",
"g8 c #7e2e2e",
"a. c #4e1b1b",
"dZ c #501919",
".a c #4f1515",
"fN c #673535",
"g2 c #714343",
"am c #462222",
"ei c #472323",
".d c #472525",
"fG c #5f4040",
"gX c #665050",
"eB c #412c2c",
"az c #412b2b",
".h c #3f2e2e",
"fv c #5c4a4a",
"gR c #5f4b4b",
"hR c #585757",
"eR c #383838",
"aR c #3d3030",
".m c #3b3030",
"fk c #585353",
"hP c #575252",
"gK c #575353",
".s c #383535",
"a5 c #383838",
"f. c #535555",
"gF c #515757",
"hM c #525757",
"bj c #333838",
".z c #343939",
"gA c #4c5959",
"eS c #4f5d5d",
"hK c #4f5d5d",
"bx c #303c3c",
".H c #314040",
"eC c #505a5a",
"gu c #485959",
"hI c #496060",
"bN c #2d4040",
".Q c #2d4141",
"gp c #435d5d",
"hE c #405b5b",
"b5 c #2b4646",
".0 c #2a4343",
"gl c #3e6161",
"hz c #436767",
"## c #274848",
"cj c #284a4a",
"gh c #3a6262",
"hu c #447171",
"#f c #254d4d",
"cC c #244b4b",
"ga c #366464",
"hq c #407676",
"cW c #214e4e",
"#r c #235353",
"f7 c #317272",
"hl c #2e6767",
"dg c #1e5353",
"#C c #1e5353",
"f1 c #2c7676",
"hd c #316c6c",
"#S c #1b5757",
"dC c #1e5a5a",
"fV c #247070",
"g9 c #348484",
"#9 c #195a5a",
"dY c #1a5d5d",
".# c #2b4b4b",
"fO c #246a6a",
"g3 c #248080",
"eh c #176060",
"al c #186161",
".c c #166565",
"gY c #1f7575",
"fH c #328b8b",
"eA c #146565",
"ay c #156666",
".g c #126363",
"aO c #006464",
"bK c #006565",
"ef c #006666",
"eO c #006868",
".8 c #006969",
".q c #006b6b",
"#o c #006c6c",
"#z c #006d6d",
".Y c #006e6e",
".w c #006f6f",
"fK c #007070",
"#P c #007171",
"dV c #007272",
"ge c #007373",
"#6 c #007474",
"gs c #007575",
"ai c #007676",
"gb c #007777",
"gJ c #007878",
"hh c #007979",
"e7 c #007a7a",
"ex c #007c7c",
"co c #007d7e",
"gM c #008181",
"eZ c #008383",
"eP c #008585",
"bV c #00858f",
".2 c #008787",
"ca c #008790",
"fC c #008888",
"cr c #008891",
"fs c #008989",
"#F c #008a8a",
"fB c #008b8b",
".M c #008c8c",
"fg c #008d8d",
"fA c #008e8e",
"fr c #008f8f",
".W c #009090",
"ez c #009191",
"e5 c #009292",
"e6 c #009393",
".7 c #009494",
"fq c #009595",
"fz c #009696",
"fp c #009797",
"#c c #009898",
"e4 c #009999",
"#n c #009a9a",
"bB c #009a9b",
"eN c #009b9b",
"e3 c #009c9c",
"#y c #009d9d",
"e2 c #009e9e",
"#O c #009f9f",
"dU c #00a0a0",
"ew c #00a1a1",
".5 c #00a2a2",
"ee c #00a3a3",
".V c #00a4a4",
"#m c #00a5a5",
".6 c #00a6a6",
"#Q c #016e6e",
"ey c #017575",
"av c #017a7a",
"e8 c #018181",
"gC c #018484",
"c4 c #01898d",
"cJ c #018991",
"fD c #018b8b",
"h. c #019292",
"bn c #019b9c",
"cn c #019d9d",
"#5 c #01a1a1",
"#N c #01a5a5",
"b2 c #026a6a",
"ax c #027070",
"g7 c #027e7e",
"aN c #027f7f",
"eJ c #028080",
".u c #028686",
"dI c #028a8a",
"ft c #028c8c",
"gr c #028f8f",
"gt c #029292",
"d1 c #029696",
"bR c #029a9b",
"ev c #02a7a7",
"cg c #036c6c",
"cU c #037272",
"dX c #037575",
"gz c #037d7d",
"fi c #037e7e",
"gQ c #037f7f",
"#q c #038080",
"gm c #038282",
"dm c #038786",
"fZ c #038e8e",
"bF c #038e99",
"b8 c #039b9b",
"#l c #03a5a5",
"eY c #03a6a6",
"fE c #03a7a7",
"g4 c #03acac",
".X c #046d6d",
"fM c #047e7e",
"g# c #047f7f",
"a1 c #048686",
"fY c #048d8d",
"fe c #04a6a6",
".E c #056f6f",
"ci c #057a7a",
"eq c #057b7b",
"gg c #057f7f",
"aB c #058e8e",
"hp c #059797",
".N c #066f6f",
"gq c #067d7d",
"fT c #067f7f",
"gW c #068080",
"dz c #06a1a1",
"ed c #06a6a6",
"d6 c #077878",
"cA c #077a7a",
"g. c #077f7f",
"hD c #078080",
"bf c #078989",
"dB c #079191",
"hH c #079999",
"ec c #07a7a7",
".P c #087272",
"b. c #08736d",
"#A c #087979",
"hj c #088080",
"g1 c #088181",
"#B c #088282",
"gk c #089090",
"dR c #08a7a7",
"a2 c #097676",
"fu c #098181",
"hx c #098989",
"#. c #098f8f",
"#e c #099393",
"cE c #099696",
"eg c #099e9e",
"dS c #09a7a7",
"dT c #09a8a8",
"aw c #0a7a7a",
"cB c #0a8484",
".9 c #0a8686",
"bv c #0a8e8e",
"ak c #0a9696",
"cV c #0a9898",
"fd c #0aa8a8",
".G c #0b7c7c",
"b4 c #0b8989",
"df c #0b9b9b",
"#k c #0ba8a8",
"ea c #0babab",
"gv c #0c6464",
".y c #0c7676",
"gP c #0ca3a3",
"dQ c #0ca8a8",
"#4 c #0ca9a9",
"bi c #0d6d6d",
"a4 c #0d6e6e",
"hA c #0d8080",
"dW c #0d8181",
"gx c #0d9494",
".k c #0d9a9a",
"#R c #0da0a0",
"ah c #0da7a7",
"eb c #0da9a9",
"aQ c #0e6868",
"bM c #0e8383",
".Z c #0e8b8b",
"bJ c #0e9393",
"cH c #0e9b9e",
"gn c #0f8787",
"cz c #0f9f9f",
"#8 c #0fa4a4",
"eH c #0faaaa",
"ht c #0facac",
"gB c #107979",
"cG c #10a2a2",
"eI c #10aaaa",
"bw c #117f7f",
"gy c #118d8d",
"eX c #11aaaa",
"#x c #11abab",
".r c #127474",
"b9 c #128988",
"aP c #12a5a5",
"#M c #12abab",
"dy c #12acac",
".B c #12b1b1",
".f c #12b2b2",
"aj c #138a8a",
"f4 c #139393",
"hv c #13a0a0",
".x c #13a1a1",
"cT c #13a2a2",
"dw c #13abab",
"eQ c #146565",
".l c #146868",
"f# c #147373",
"gG c #148282",
"#7 c #148d8d",
"b1 c #149a9a",
"dx c #14abab",
"fL c #14aeae",
"#a c #14b3b3",
"dd c #15a4a4",
"dP c #15acac",
"#V c #15b4b4",
"cf c #169e9e",
"ep c #16acac",
"hN c #177a7a",
"dA c #179595",
"en c #17adad",
"dO c #17b0b0",
"gL c #188989",
"de c #189999",
"gE c #189b9b",
".p c #18a6a6",
".O c #18a7a7",
"eE c #18adad",
"fx c #18b1b1",
"dt c #19b0b0",
"fm c #19b2b2",
"bL c #1a9393",
"#p c #1a9f9f",
".F c #1aacac",
"#3 c #1aadad",
"eo c #1aaeae",
"hb c #1aafaf",
"f5 c #1ab0b0",
"an c #1b5959",
"gS c #1b6969",
"dF c #1b9494",
"gi c #1b9696",
"d5 c #1baaaa",
"dv c #1baeae",
"ag c #1bafaf",
"dk c #1bb0b0",
"d# c #1bb1b1",
"#Y c #1bb2b2",
".J c #1bb6b6",
".n c #1c5757",
".R c #1c5858",
"ck c #1c5c5c",
"di c #1c5d5d",
"#d c #1ca3a3",
"au c #1cadad",
"dH c #1caeae",
"d4 c #1cafaf",
"#I c #1cb1b1",
"hG c #1cb2b2",
"c3 c #1cb2b4",
"#h c #1cb6b6",
"aa c #1cb9b9",
"#t c #1d5959",
"#w c #1dafaf",
"aM c #1db0b0",
"dE c #1e5e5e",
"he c #1e9999",
"gI c #1ea0a0",
"ch c #1ea7a7",
"#L c #1eafaf",
"dl c #1eb0b0",
"ek c #1eb9b9",
"a# c #1f6262",
"#g c #1f6363",
"fP c #1fa5a5",
"du c #1fafaf",
"db c #1fb0b0",
"da c #1fb2b2",
"ad c #1fb3b3",
"#Z c #1fb4b4",
"c1 c #1fb5b5",
"hm c #1fb6b6",
"bg c #207d7d",
"eU c #209f9f",
"dc c #20b0b0",
"#J c #20b1b1",
"#1 c #20b2b2",
"#0 c #20b3b3",
"a0 c #20b4b4",
"hr c #20b6b6",
".I c #216464",
"#2 c #21b0b0",
"#K c #21b1b1",
"at c #21b2b2",
"cQ c #21b3b3",
"aL c #21b4b4",
"aK c #21b5b5",
"cS c #21b6b6",
"c2 c #21b6b7",
".j c #21baba",
".i c #226666",
"ao c #229f9f",
"a9 c #22a7a9",
"hy c #22b2b2",
"cR c #22b4b4",
"af c #22b5b5",
"eT c #239898",
"ae c #23b5b5",
"be c #23b6b6",
"cK c #243437",
"gc c #24aaaa",
"cx c #24b6b6",
"c5 c #253535",
"hC c #259898",
"cl c #259999",
"#u c #25a1a1",
"go c #25adad",
"b6 c #266161",
".t c #266c6c",
"gV c #269898",
".S c #26a4a4",
"gO c #26a5a5",
"cy c #26b8b8",
"hF c #27a9a9",
".1 c #286d6d",
"#E c #286e6e",
"fl c #289191",
"hi c #289b9b",
"hL c #28a3a3",
"dn c #293737",
".o c #29a8a8",
"eD c #2ab0b0",
"d0 c #2b6f6f",
".b c #2b7070",
"ff c #2b8c8c",
"hJ c #2bacac",
"cs c #2c3c40",
"aW c #2c998a",
"fh c #2ca4a4",
"br c #2db2b4",
".e c #2e7070",
"#U c #2e7171",
"bS c #2e948e",
"gU c #2eadad",
"eG c #2eb3b3",
"bt c #2eb9b9",
"bZ c #2ebaba",
"do c #2f2c29",
"c7 c #2f2d00",
".A c #2f7070",
"cX c #2f7272",
"bh c #2fb2b2",
"eW c #2fb3b3",
"ar c #2fb8b9",
"hB c #30b5b5",
"aJ c #30b9b9",
"bc c #30baba",
"bd c #31b9b9",
"aY c #31b9bc",
"bu c #31bbbb",
"fw c #329494",
"aH c #32b9b9",
"aF c #32babd",
"dK c #333226",
"hO c #333b3b",
"fF c #333c3c",
"gf c #33a5a5",
"ha c #33b6b6",
"aI c #33b9b9",
"as c #33baba",
"fj c #343c3c",
"bW c #344443",
".D c #34aeae",
"hg c #34b7b7",
"fa c #34b8b8",
"aG c #34baba",
"aE c #34bbb9",
"d7 c #353737",
"bk c #357070",
"fS c #35a8a8",
"ho c #35b6b6",
"aZ c #35baba",
"hs c #35bbbb",
"hw c #36b0b0",
"g0 c #36b2b2",
"bb c #36bbbb",
"bI c #36bcbc",
"b0 c #36bdbd",
"e9 c #373d3d",
"cb c #374748",
"f8 c #37b0b0",
"cY c #37c3c3",
"ej c #387575",
"fc c #39b6b6",
"c6 c #3a371e",
"cD c #3a7575",
"b3 c #3ab6b6",
"g6 c #3ab8b8",
"a3 c #3ab9b9",
"dJ c #3b3839",
"eK c #3b4848",
"aA c #3c7474",
"fo c #3cb8b8",
"f2 c #3db4b4",
"cp c #3e6428",
"hn c #3ebaba",
"dp c #3f3c10",
"bC c #3f9791",
"er c #404848",
"gj c #40b6b6",
"d9 c #41423c",
"e0 c #415050",
"gw c #41b3b3",
"fy c #43b9b9",
"bo c #449993",
"hQ c #454b4b",
"el c #45bcbc",
"ba c #45c0ad",
"a6 c #477777",
"e1 c #479797",
"cI c #489e6e",
"fW c #48baba",
"eM c #4a9c9c",
"cL c #4b4824",
"aX c #4bc0a6",
"gZ c #4cbfbf",
"hf c #4cc0c0",
"#W c #4dbebe",
"#b c #4ebebe",
"cP c #4fb7b7",
"fJ c #4fbbbb",
"g5 c #4fc1c1",
".v c #4fc2c2",
"eu c #50a2a2",
".C c #51bfbf",
"ab c #51c3c3",
"gd c #52bfbf",
"fQ c #52c0c0",
"#i c #52c2c2",
".T c #52c3c3",
"ap c #52c6c6",
"gT c #53c0c0",
".K c #53c3c3",
"d8 c #545254",
"bs c #55bdbd",
"dj c #55c6c6",
"bl c #56c4c4",
"dG c #56c7c7",
"f9 c #57c0c0",
"cm c #57c3c3",
"es c #585657",
"e# c #58a6a7",
"bz c #58c4c4",
"c0 c #58c7c7",
"fR c #59bdbd",
"gN c #5bc5c5",
"aV c #5cc0c2",
"d2 c #5cc6c6",
"aS c #5d7e7e",
"gD c #5dc1c1",
"dN c #5fa9a9",
"h# c #5fc6c6",
"gH c #5fc7c7",
"#G c #60c6c6",
"aC c #60c9c9",
".3 c #62c8c8",
"ct c #636155",
"fX c #63c0c0",
"cc c #646263",
"aU c #65c6c6",
"bH c #66c3c3",
"cZ c #66c9c9",
"ds c #67afaf",
"cu c #68696f",
"fI c #68caca",
"bO c #698585",
"f3 c #69c2c2",
"aT c #6bcfcf",
"cN c #6d6e76",
"bY c #6dc1c1",
"bG c #6e7c7c",
"d. c #6eb4b4",
".L c #6ecccc",
"et c #6f6969",
"cF c #6fcccc",
".4 c #70caca",
".U c #71caca",
"e. c #746d69",
"dL c #757316",
"by c #758989",
"#X c #75cdcd",
"d3 c #76cccc",
"ce c #77c2c2",
"#v c #77cccc",
"#H c #77cdcd",
"#j c #78cdcd",
"a8 c #78d0d0",
"c. c #796f00",
"eL c #796f6f",
"bp c #797100",
"cq c #79b35f",
"bT c #7a7200",
"fn c #7ad0d0",
"dM c #7b756c",
"ac c #7bcfcf",
"em c #7ccece",
"aq c #7ccecf",
"aD c #7cd0d3",
"bD c #7d7500",
"dr c #7f7a77",
"cw c #80bebe",
"fb c #80d1d1",
"c# c #81be61",
"bQ c #81d5d5",
"cM c #828038",
"eV c #83d3d3",
"dq c #84800b",
"bX c #857d7d",
"bU c #86c361",
"b7 c #87d9d9",
"c9 c #8d8787",
"bm c #8dd9d9",
"cv c #8e8888",
"bA c #8edada",
"cd c #908a8a",
"eF c #90d9d9",
"bq c #94d462",
"bE c #96cb62",
"c8 c #9a973e",
"b# c #a49e07",
"a7 c #ade8e8",
"bP c #b6ecec",
"cO c #b7aaaa",
"QtQtQtQtQtQtQtQtQtQtQtQtQtQtQtQtQtQtQtQtQtQtQtQtQtQtQtQtQt.#.aQtQtQtQtQtQtQtQtQtQtQtQtQtQtQtQtQtQtQtQtQtQtQtQtQtQtQtQtQtQtQtQtQt",
"QtQtQtQtQtQtQtQtQtQtQtQtQtQtQtQtQtQtQtQtQtQtQtQtQtQtQtQtQt.b.c.dQtQtQtQtQtQtQtQtQtQtQtQtQtQtQtQtQtQtQtQtQtQtQtQtQtQtQtQtQtQtQtQt",
"QtQtQtQtQtQtQtQtQtQtQtQtQtQtQtQtQtQtQtQtQtQtQtQtQtQtQtQtQt.e.f.g.hQtQtQtQtQtQtQtQtQtQtQtQtQtQtQtQtQtQtQtQtQtQtQtQtQtQtQtQtQtQtQt",
"QtQtQtQtQtQtQtQtQtQtQtQtQtQtQtQtQtQtQtQtQtQtQtQtQtQtQtQtQt.i.j.k.l.mQtQtQtQtQtQtQtQtQtQtQtQtQtQtQtQtQtQtQtQtQtQtQtQtQtQtQtQtQtQt",
"QtQtQtQtQtQtQtQtQtQtQtQtQtQtQtQtQtQtQtQtQtQtQtQtQtQtQtQtQt.n.o.p.q.r.sQtQtQtQtQtQtQtQtQtQtQtQtQtQtQtQtQtQtQtQtQtQtQtQtQtQtQtQtQt",
"QtQtQtQtQtQtQtQtQtQtQtQtQtQtQtQtQtQtQtQtQtQtQtQtQtQtQtQtQt.t.u.v.w.x.y.zQtQtQtQtQtQtQtQtQtQtQtQtQtQtQtQtQtQtQtQtQtQtQtQtQtQtQtQt",
"QtQtQtQtQtQtQtQtQtQtQtQtQtQtQtQtQtQtQtQtQtQtQtQtQtQtQtQtQt.A.B.C.D.E.F.G.HQtQtQtQtQtQtQtQtQtQtQtQtQtQtQtQtQtQtQtQtQtQtQtQtQtQtQt",
"QtQtQtQtQtQtQtQtQtQtQtQtQtQtQtQtQtQtQtQtQtQtQtQtQtQtQtQtQt.I.J.K.L.M.N.O.P.QQtQtQtQtQtQtQtQtQtQtQtQtQtQtQtQtQtQtQtQtQtQtQtQtQtQt",
"QtQtQtQtQtQtQtQtQtQtQtQtQtQtQtQtQtQtQtQtQtQtQtQtQtQtQtQtQt.R.S.T.U.V.W.X.Y.Z.0QtQtQtQtQtQtQtQtQtQtQtQtQtQtQtQtQtQtQtQtQtQtQtQtQt",
"QtQtQtQtQtQtQtQtQtQtQtQtQtQtQtQtQtQtQtQtQtQtQtQtQtQtQtQtQt.1.2.3.4.5.6.7.8.9#.##QtQtQtQtQtQtQtQtQtQtQtQtQtQtQtQtQtQtQtQtQtQtQtQt",
"QtQtQtQtQtQtQtQtQtQtQtQtQtQtQtQtQtQtQtQtQtQtQtQtQtQtQtQtQt.e#a#b.U.5.V.6#c.q#d#e#fQtQtQtQtQtQtQtQtQtQtQtQtQtQtQtQtQtQtQtQtQtQtQt",
"QtQtQtQtQtQtQtQtQtQtQtQtQtQtQtQtQtQtQtQtQtQtQtQtQtQtQtQtQt#g#h#i#j#k#l.V#m#n#o#p#q#r#sQtQtQtQtQtQtQtQtQtQtQtQtQtQtQtQtQtQtQtQtQt",
"QtQtQtQtQtQtQtQtQtQtQtQtQtQtQtQtQtQtQtQtQtQtQtQtQtQtQtQtQt#t#u.T#v#w#w#x#l#m#y#z#A#B#C#DQtQtQtQtQtQtQtQtQtQtQtQtQtQtQtQtQtQtQtQt",
"QtQtQtQtQtQtQtQtQtQtQtQtQtQtQtQtQtQtQtQtQtQtQtQtQtQtQtQtQt#E#F#G#H#I#J#K#L#M#N#O#P#Q#R#S#TQtQtQtQtQtQtQtQtQtQtQtQtQtQtQtQtQtQtQt",
"QtQtQtQtQtQtQtQtQtQtQtQtQtQtQtQtQtQtQtQtQtQtQtQtQtQtQtQtQt#U#V#W#X#Y#Z#0#1#2#3#4#5#6#7#8#9a.QtQtQtQtQtQtQtQtQtQtQtQtQtQtQtQtQtQt",
"QtQtQtQtQtQtQtQtQtQtQtQtQtQtQtQtQtQtQtQtQtQtQtQtQtQtQtQtQta#aaabacadaeaf#Zad#0#KagahaiajakalamQtQtQtQtQtQtQtQtQtQtQtQtQtQtQtQtQt",
"QtQtQtQtQtQtQtQtQtQtQtQtQtQtQtQtQtQtQtQtQtQtQtQtQtQtQtQtQtanaoapaqarasasaeafaf#Z#0atauavawaxayazQtQtQtQtQtQtQtQtQtQtQtQtQtQtQtQt",
"QtQtQtQtQtQtQtQtQtQtQtQtQtQtQtQtQtQtQtQtQtQtQtQtQtQtQtQtQtaAaBaCaDaEaFaGaGaHaIaJafaKaLaMaNaOaPaQaRQtQtQtQtQtQtQtQtQtQtQtQtQtQtQt",
"QtQtQtQtQtQtQtQtQtQtQtQtQtQtQtQtQtQtQtQtQtQtQtQtQtQtQtQtQtaSaTaUaVaWaXaYaGaGaZaZaHaHaHafa0a1a2a3a4a5QtQtQtQtQtQtQtQtQtQtQtQtQtQt",
"QtQtQtQtQtQtQtQtQtQtQtQtQtQtQtQtQtQtQtQtQtQtQtQtQtQtQtQtQta6a7a8a9b.b#babbbcaGaGaGaZaZasbdbebfbgbhbibjQtQtQtQtQtQtQtQtQtQtQtQtQt",
"QtQtQtQtQtQtQtQtQtQtQtQtQtQtQtQtQtQtQtQtQtQtQtQtQtQtQtQtQtbkblbmbnbobpbqbrbsbtaGaGaGaGaGaGaZbubv.r#zbwbxQtQtQtQtQtQtQtQtQtQtQtQt",
"QtQtQtQtQtQtQtQtQtQtQtQtQtQtQtQtQtQtQtQtQtQtQtQtQtQtQtQtQtbybzbAbBbCbDbEbFbGbHbtaGaGaGaGaGaGaGbIbJbKbLbMbNQtQtQtQtQtQtQtQtQtQtQt",
"QtQtQtQtQtQtQtQtQtQtQtQtQtQtQtQtQtQtQtQtQtQtQtQtQtQtQtQtQtbObPbQbRbSbTbUbVbWbXbYbZaGaGaGaGaZaZaGb0b1b2b3b4b5QtQtQtQtQtQtQtQtQtQt",
"QtQtQtQtQtQtQtQtQtQtQtQtQtQtQtQtQtQtQtQtQtQtQtQtQtQtQtQtQtb6b7.Lb8b9c.c#cacbcccdcebZaZaZaZaHaIaIasbIcfcgchcicjQtQtQtQtQtQtQtQtQt",
"QtQtQtQtQtQtQtQtQtQtQtQtQtQtQtQtQtQtQtQtQtQtQtQtQtQtQtQtQtckclcmcncocpcqcrcsctcucvcwbtaHaHcxafaeafaecycz.qcAcBcCQtQtQtQtQtQtQtQt",
"QtQtQtQtQtQtQtQtQtQtQtQtQtQtQtQtQtQtQtQtQtQtQtQtQtQtQtQtQtcDcEcF#LcGcHcIcJcKcLcMcNcOcPcQcQcRadadadad#0cScT#ocUcVcW#sQtQtQtQtQtQt",
"QtQtQtQtQtQtQtQtQtQtQtQtQtQtQtQtQtQtQtQtQtQtQtQtQtQtQtQtQtcXcYcZc0c1c2c3c4c5c6c7c8c9d.d#da#1#1#1#1#Kdbdcatdd.wdedfdgdhQtQtQtQtQt",
"QtQtQtQtQtQtQtQtQtQtQtQtQtQtQtQtQtQtQtQtQtQtQtQtQtQtQtQtQtdi.jdj#jdk#1dldmdndodpdqdrdsdt#2#2#Ldudbdcdvdwdxdydz.wdAdBdCdDQtQtQtQt",
"QtQtQtQtQtQtQtQtQtQtQtQtQtQtQtQtQtQtQtQtQtQtQtQtQtQtQtQtQtdEdFdG#vdHdcdudIc5dJdKdLdMdNdOdu#LdP#MdwdQ#kdRdSdT#mdUdVdWdXdYdZQtQtQt",
"QtQtQtQtQtQtQtQtQtQtQtQtQtQtQtQtQtQtQtQtQtQtQtQtQtQtQtQtQtd0d1d2d3d4#2#2d5d6d7d8d9e.e#ea#MebdSecdRedee.V.V.5.5eedUaiefegeheiQtQt",
"QtQtQtQtQtQtQtQtQtQtQtQtQtQtQtQtQtQtQtQtQtQtQtQtQtQtQtQtQtejekelemeneodvd4epeqereseteuevedec.V.V.V.V.Vee.5ewdUdUdU#yexeyezeAeBQt",
"QtQtQtQtQtQtQtQtQtQtQtQtQtQtQtQtQtQtQtQtQtQtQtQtQtQtQtQtQteCeDeEeFeG#4eHeI#xebeJeKeLeM#m.V.V.V.5.5.5.5dUdU#O#y#y#y#neNeOeP.7eQeR",
"QtQtQtQtQtQtQtQtQtQtQtQtQtQtQtQtQtQtQtQtQtQtQtQtQtQtQtQtQtQteSeTeUeVeW#4eXeI#4eYeZe0e1.Vew.5.5ew#O#Oe2#y#ye3e4#ce4e5e6.we7eNe8e9",
"QtQtQtQtQtQtQtQtQtQtQtQtQtQtQtQtQtQtQtQtQtQtQtQtQtQtQtQtQtQtQtf.f#fafbfcfd#kfe.V#mezffee#O#O#O#ye3#y#y#c#ce4e6e6fgfg.M.Y#Pfhfifj",
"QtQtQtQtQtQtQtQtQtQtQtQtQtQtQtQtQtQtQtQtQtQtQtQtQtQtQtQtQtQtQtQtfkflfmfnfoeeewewewew#Oewe2e3e3eNfpfp#cfqe6e6frfg.Mfsfg.Y.2ftfufj",
"QtQtQtQtQtQtQtQtQtQtQtQtQtQtQtQtQtQtQtQtQtQtQtQtQtQtQtQtQtQtQtQtQtfvfwfx.Lfy#y#O#O#ye3e3e3fzfpfp.7.7e6e6fAfBfB#F#FfC.M.wfDfEfifF",
"QtQtQtQtQtQtQtQtQtQtQtQtQtQtQtQtQtQtQtQtQtQtQtQtQtQtQtQtQtQtQtQtQtQtfGfHfgfIfJ#ce3eNfzfzfpfz.7e5e5e6fgfBfBfCfCfCfsfBfAfKaNfLfMfj",
"QtQtQtQtQtQtQtQtQtQtQtQtQtQtQtQtQtQtQtQtQtQtQtQtQtQtQtQtQtQtQtQtQtQtQtfNfOfPfQfRe6fz.7.7e5e5e5frfg#F#F#F.2fCfC#F.M.MfA.YdVfSfTfj",
"QtQtQtQtQtQtQtQtQtQtQtQtQtQtQtQtQtQtQtQtQtQtQtQtQtQtQtQtQtQtQtQtQtQtQtQtfUfVdUfWfXfAe5e5ez.M.M.MfsfsfCfCfCfCfCfB.Mfgez.YfYfZfufj",
"QtQtQtQtQtQtQtQtQtQtQtQtQtQtQtQtQtQtQtQtQtQtQtQtQtQtQtQtQtQtQtQtQtQtQtQtQtf0f1ewf2f3#F.M.MfBfsfsfCfCfCfCfCfCfC#F.Mfre6.wf4f5fMfF",
"QtQtQtQtQtQtQtQtQtQtQtQtQtQtQtQtQtQtQtQtQtQtQtQtQtQtQtQtQtQtQtQtQtQtQtQtQtQtf6f7ePf8f9#FfsfsfCfCfCfCfCfCfCfCfC#Ffge6e6fKg.#1g#fj",
"QtQtQtQtQtQtQtQtQtQtQtQtQtQtQtQtQtQtQtQtQtQtQtQtQtQtQtQtQtQtQtQtQtQtQtQtQtQtQtQtgagbgcgd.MfCfCfCfCfCfCfCfCfs#F.Mfr.7fq.Ygegfggfj",
"QtQtQtQtQtQtQtQtQtQtQtQtQtQtQtQtQtQtQtQtQtQtQtQtQtQtQtQtQtQtQtQtQtQtQtQtQtQtQtQtQtghfggigjfB.2fCfCfCfCfCfsfB.MfAe5#c#c.YgkfAfufj",
"QtQtQtQtQtQtQtQtQtQtQtQtQtQtQtQtQtQtQtQtQtQtQtQtQtQtQtQtQtQtQtQtQtQtQtQtQtQtQtQtQtQtglgmgngofB.2fCfCfCfs#F.Mfg.W.7e4e4.wfB#mfifF",
"QtQtQtQtQtQtQtQtQtQtQtQtQtQtQtQtQtQtQtQtQtQtQtQtQtQtQtQtQtQtQtQtQtQtQtQtQtQtQtQtQtQtQtgpd6gqgcgr.2fCfs#F.MfgfAe6fpe3e4.wgsgtfifj",
"QtQtQtQtQtQtQtQtQtQtQtQtQtQtQtQtQtQtQtQtQtQtQtQtQtQtQtQtQtQtQtQtQtQtQtQtQtQtQtQtQtQtQtQtgugvgmgwgxfCfB.M.MfAe6fqe4#ye4.w#ogygzfj",
"QtQtQtQtQtQtQtQtQtQtQtQtQtQtQtQtQtQtQtQtQtQtQtQtQtQtQtQtQtQtQtQtQtQtQtQtQtQtQtQtQtQtQtQtQtgAgBgCgDgE#FfBfge5.7#ce3#ye4.wdV.2ggfj",
"QtQtQtQtQtQtQtQtQtQtQtQtQtQtQtQtQtQtQtQtQtQtQtQtQtQtQtQtQtQtQtQtQtQtQtQtQtQtQtQtQtQtQtQtQtQtgFgGfzgHgIfBfre6fq#ne3e2eN.wgJfpfifj",
"QtQtQtQtQtQtQtQtQtQtQtQtQtQtQtQtQtQtQtQtQtQtQtQtQtQtQtQtQtQtQtQtQtQtQtQtQtQtQtQtQtQtQtQtQtQtQtgKgLgMgNgOez.7#ce3e3#Oe3.wgegPgQfj",
"QtQtQtQtQtQtQtQtQtQtQtQtQtQtQtQtQtQtQtQtQtQtQtQtQtQtQtQtQtQtQtQtQtQtQtQtQtQtQtQtQtQtQtQtQtQtQtQtgRgSe6gTgUe6#ne3e3e2e3.YfKgVgWfj",
"QtQtQtQtQtQtQtQtQtQtQtQtQtQtQtQtQtQtQtQtQtQtQtQtQtQtQtQtQtQtQtQtQtQtQtQtQtQtQtQtQtQtQtQtQtQtQtQtQtgXgY#OgZg0eNe3e3dU#y#zgMfrg1fj",
"QtQtQtQtQtQtQtQtQtQtQtQtQtQtQtQtQtQtQtQtQtQtQtQtQtQtQtQtQtQtQtQtQtQtQtQtQtQtQtQtQtQtQtQtQtQtQtQtQtQtg2g3g4g5g6#n#ydUe2.Y#Fecg7fj",
"QtQtQtQtQtQtQtQtQtQtQtQtQtQtQtQtQtQtQtQtQtQtQtQtQtQtQtQtQtQtQtQtQtQtQtQtQtQtQtQtQtQtQtQtQtQtQtQtQtQtQtg8g9h.h#hae3.5e2.Ygbhbg#fj",
"QtQtQtQtQtQtQtQtQtQtQtQtQtQtQtQtQtQtQtQtQtQtQtQtQtQtQtQtQtQtQtQtQtQtQtQtQtQtQtQtQtQtQtQtQtQtQtQtQtQtQtQthchdhehfhgew#O#zhhhihjfj",
"QtQtQtQtQtQtQtQtQtQtQtQtQtQtQtQtQtQtQtQtQtQtQtQtQtQtQtQtQtQtQtQtQtQtQtQtQtQtQtQtQtQtQtQtQtQtQtQtQtQtQtQtQthkhlhmhnhoew#ofghphjfj",
"QtQtQtQtQtQtQtQtQtQtQtQtQtQtQtQtQtQtQtQtQtQtQtQtQtQtQtQtQtQtQtQtQtQtQtQtQtQtQtQtQtQtQtQtQtQtQtQtQtQtQtQtQtQtQthqhreGhsdVfthtfMfF",
"QtQtQtQtQtQtQtQtQtQtQtQtQtQtQtQtQtQtQtQtQtQtQtQtQtQtQtQtQtQtQtQtQtQtQtQtQtQtQtQtQtQtQtQtQtQtQtQtQtQtQtQtQtQtQtQthuhvhwhx#6hyfTfj",
"QtQtQtQtQtQtQtQtQtQtQtQtQtQtQtQtQtQtQtQtQtQtQtQtQtQtQtQtQtQtQtQtQtQtQtQtQtQtQtQtQtQtQtQtQtQtQtQtQtQtQtQtQtQtQtQtQthzhAhBgmhChDfj",
"QtQtQtQtQtQtQtQtQtQtQtQtQtQtQtQtQtQtQtQtQtQtQtQtQtQtQtQtQtQtQtQtQtQtQtQtQtQtQtQtQtQtQtQtQtQtQtQtQtQtQtQtQtQtQtQtQtQthEhFhGhHhDfj",
"QtQtQtQtQtQtQtQtQtQtQtQtQtQtQtQtQtQtQtQtQtQtQtQtQtQtQtQtQtQtQtQtQtQtQtQtQtQtQtQtQtQtQtQtQtQtQtQtQtQtQtQtQtQtQtQtQtQtQthIhJd#fMfF",
"QtQtQtQtQtQtQtQtQtQtQtQtQtQtQtQtQtQtQtQtQtQtQtQtQtQtQtQtQtQtQtQtQtQtQtQtQtQtQtQtQtQtQtQtQtQtQtQtQtQtQtQtQtQtQtQtQtQtQtQthKhLeJfj",
"QtQtQtQtQtQtQtQtQtQtQtQtQtQtQtQtQtQtQtQtQtQtQtQtQtQtQtQtQtQtQtQtQtQtQtQtQtQtQtQtQtQtQtQtQtQtQtQtQtQtQtQtQtQtQtQtQtQtQtQtQthMhNhO",
"QtQtQtQtQtQtQtQtQtQtQtQtQtQtQtQtQtQtQtQtQtQtQtQtQtQtQtQtQtQtQtQtQtQtQtQtQtQtQtQtQtQtQtQtQtQtQtQtQtQtQtQtQtQtQtQtQtQtQtQtQtQthPhQ",
"QtQtQtQtQtQtQtQtQtQtQtQtQtQtQtQtQtQtQtQtQtQtQtQtQtQtQtQtQtQtQtQtQtQtQtQtQtQtQtQtQtQtQtQtQtQtQtQtQtQtQtQtQtQtQtQtQtQtQtQtQtQtQthR"};
