/* XPM */
static char *dummy[]={
"64 64 357 2",
"Qt c #000000",
"#j c #006060",
".H c #006161",
"#A c #006565",
".U c #006a6a",
"#U c #007272",
"c9 c #007777",
"## c #007878",
".A c #007d7d",
"db c #008080",
"c5 c #008181",
"bm c #008686",
"#b c #008787",
"aO c #008888",
"bN c #008989",
".N c #008a8a",
"bU c #008b8b",
"aF c #008c8c",
"b2 c #008d8d",
"ao c #008e8e",
"av c #008f8f",
"bl c #009090",
"#2 c #009191",
"cs c #009292",
"cc c #009393",
"af c #009494",
"cI c #009595",
"aX c #009696",
"#9 c #009797",
"bu c #009898",
"b1 c #009999",
"aN c #009a9a",
"bk c #009b9b",
"aE c #009c9c",
"cg c #009d9d",
"bc c #009e9e",
".G c #009f9f",
"a5 c #00a0a0",
"an c #00a1a1",
"bt c #00a2a2",
".M c #00a3a3",
".j c #010101",
".v c #016060",
"bO c #017676",
"cm c #017777",
"cJ c #017979",
"#3 c #017e7e",
"cw c #018181",
".r c #018282",
"#q c #018686",
".C c #018989",
"c0 c #018a8a",
".e c #018d8d",
"dk c #019b9b",
"aW c #01a3a3",
".S c #01a4a4",
"c3 c #020000",
"#D c #020101",
".p c #027979",
"cp c #027c7c",
".W c #027e7e",
"ct c #028080",
"cP c #028484",
"b9 c #028585",
"bV c #028686",
"aw c #028888",
"cV c #029595",
"aM c #02a3a3",
"ae c #02a4a4",
"a6 c #037676",
"ca c #037979",
"cz c #03a4a4",
"bb c #03a6a6",
"#L c #046969",
"du c #047979",
"cd c #048181",
"bd c #048383",
"#M c #048b8b",
"#s c #048c8c",
"#K c #049494",
"aD c #04a5a5",
"aG c #058989",
"cY c #058a8a",
"b3 c #058b8b",
".l c #067474",
"dh c #068b8b",
"dd c #068c8c",
"b6 c #069595",
"cr c #06a5a5",
"cv c #06a6a6",
"ag c #077979",
"dx c #078989",
"dl c #078c8c",
"ch c #079898",
"#8 c #07a6a6",
".X c #080202",
".O c #087777",
"#C c #087878",
"ci c #087d7d",
"aP c #088b8b",
"dn c #089393",
"#1 c #08a7a7",
"dm c #090404",
"c7 c #097a7a",
".P c #099090",
".T c #09a8a8",
".3 c #0a6767",
".i c #0a7575",
"bn c #0a8e8e",
".m c #0a9090",
"#r c #0b7e7e",
".2 c #0b9b9b",
"cW c #0ba0a0",
"bD c #0ba0a1",
".# c #0c7b7b",
"cE c #0c7c7c",
"c4 c #0c8787",
"cb c #0c9c9c",
".s c #0d0707",
"cA c #0d8787",
"bv c #0d8e8e",
"b8 c #0d9f9f",
"aV c #0da9a9",
"bY c #0e7171",
"cl c #0eaaaa",
"#T c #0eacac",
".J c #0f6d6d",
".B c #0f8a8a",
"b0 c #0fa1a1",
"bT c #0fa2a4",
"bM c #0fa3a6",
"cD c #0fa5a5",
".0 c #0faaaa",
"dE c #100909",
".w c #109393",
".u c #10a5a5",
"am c #10aaaa",
"bB c #118f8f",
"dA c #11a1a1",
"cf c #11abab",
"a. c #128888",
"c2 c #128d8d",
"bx c #128e84",
"#B c #129898",
"cS c #12a1a1",
"ad c #12abab",
".a c #130d0d",
".q c #139898",
"bG c #13a7a9",
"aL c #13abab",
"bJ c #13acac",
".I c #149b9b",
"ds c #14a2a2",
"cM c #14a6a6",
"bA c #14a6ab",
"#l c #156666",
"bH c #158888",
"#k c #159797",
"d# c #159d9d",
".h c #159f9f",
".1 c #15acac",
".L c #15aeae",
"cU c #160e0e",
".z c #16b0b0",
"aY c #178b8b",
"dq c #178d8d",
"dF c #179e9e",
"df c #17a6a6",
"#7 c #17aeae",
".F c #17afaf",
"#c c #181212",
"dB c #18a2a2",
"aC c #19aeae",
".c c #1a6060",
".4 c #1a9696",
".8 c #1aafaf",
"bQ c #1ab1b1",
".b c #1b8989",
"bs c #1ba9aa",
".D c #1d1a1a",
".d c #1d8d8d",
"#0 c #1db0b0",
"#f c #1eb1b1",
"do c #1fadad",
".9 c #1fb1b1",
"al c #1fb2b2",
"de c #201919",
".x c #205757",
"cB c #209090",
".g c #209191",
"dD c #20a4a4",
"cG c #20afaf",
"#m c #20b3b3",
"#a c #219898",
"#i c #21acac",
"#S c #21b3b3",
".f c #222222",
"bj c #22adad",
".Z c #22b3b3",
"dw c #23aeae",
"ac c #23b4b4",
"#. c #23b5b5",
"bX c #23b6b6",
".5 c #244e4e",
"da c #247070",
"#w c #24b5b5",
"#t c #252a2a",
"cX c #25adad",
"#g c #25b5b5",
"bR c #265757",
"cx c #269999",
"aB c #26b4b4",
"#J c #26b5b5",
".Q c #273030",
"dv c #278c8c",
"ax c #278d90",
"ba c #27afaf",
"#n c #27b6b6",
"#G c #27b7b7",
"dz c #282323",
"bK c #285b5a",
"aU c #28b1b1",
".n c #293b3b",
"#z c #29b5b5",
"#h c #29b6b6",
"by c #2a5144",
"bE c #2a5349",
"dg c #2ab2b2",
"#Z c #2ab6b6",
".o c #2b8989",
"aq c #2b8c8f",
"au c #2bb7b7",
"a4 c #2cb2b2",
".Y c #2d8b8b",
"#O c #2d8d8d",
"ck c #2db7b7",
"#Q c #2db8b8",
"#x c #2db9b9",
"cL c #2e2a2a",
"cF c #2e8989",
"cq c #2e8b8b",
"dp c #2eb1b1",
"#R c #2eb8b8",
"at c #2eb9b9",
"b5 c #2ebaba",
"dI c #2f2f2f",
"bh c #2f563f",
".7 c #2fb8b8",
"#o c #2fb9b9",
"#V c #304242",
"a# c #304343",
"ah c #304444",
"cO c #30a9a9",
"#6 c #30b9b9",
"#v c #30bcbc",
"cQ c #314242",
"cn c #314343",
"aZ c #314444",
"bW c #318c8c",
"#e c #31baba",
"a7 c #324444",
".t c #329a9a",
"d. c #32a2a2",
".V c #32a7a7",
"#I c #32b9b9",
"c# c #32baba",
"#N c #333737",
"be c #334444",
"cK c #334545",
"bq c #33593d",
"#Y c #33baba",
"dy c #344444",
"ap c #344545",
".6 c #349d9d",
"#H c #34baba",
"b. c #355c3f",
"bf c #359b9d",
"#y c #35baba",
"#p c #35bcbc",
"#F c #35bdbd",
"c8 c #363636",
"cR c #377d7d",
"ak c #37bcbc",
"cu c #389e9e",
"#W c #38a0a0",
"di c #396262",
".k c #399999",
"aa c #39a3a7",
"dC c #3a7373",
"#P c #3abfbf",
"dr c #3b4343",
"#E c #3b9494",
"c6 c #3bbbbb",
"b4 c #3c9d9d",
".E c #3ca1a1",
".y c #3ca2a2",
"cZ c #3d5a5a",
"#d c #3da2a2",
"b7 c #3e4747",
".K c #3ea2a2",
"#4 c #3ea3a3",
"cj c #3ea4a4",
"ab c #3ec1c1",
".R c #3f9898",
"#X c #3fc1c1",
"dG c #405151",
"bp c #409466",
"#u c #41a3a3",
"ai c #41a3a6",
"cN c #41bcbc",
"co c #439c9c",
"aH c #43a3a6",
"ce c #43a6a6",
"#5 c #43c2c2",
"dH c #445353",
"bL c #454e52",
"aJ c #45715f",
"bg c #479866",
"aS c #486e61",
"bP c #48a1a1",
"a2 c #4a724f",
"dt c #4abdbd",
"a9 c #4d9a67",
"c. c #4eaaaa",
"az c #507e74",
"bo c #51a6a6",
"aj c #51c8b4",
"aI c #529c64",
"a1 c #539d68",
"ay c #569961",
"bS c #576061",
"bI c #58abab",
"c1 c #58bbbb",
"br c #5a603a",
"aA c #5ac1c1",
"aR c #5ca16c",
"aQ c #5cabae",
"bF c #5d6540",
"bZ c #5f6666",
"bz c #616842",
"a8 c #64b0b3",
"bC c #67b0b0",
"a0 c #6db2b6",
"b# c #717879",
"bw c #72b3b3",
"ar c #77ba69",
"a3 c #787e80",
"as c #7bb5b6",
"cy c #7dd1d1",
"dj c #7ed3d3",
"cC c #7ed6d6",
"dc c #82d5d5",
"aT c #838a8c",
"bi c #8e9345",
"cH c #9cdada",
"cT c #a1dfdf",
"aK c #abacac",
"QtQtQtQtQtQtQtQtQtQtQtQtQtQtQtQtQtQtQtQtQtQtQtQtQtQtQtQtQtQtQtQtQtQtQtQtQtQtQtQtQtQtQtQtQtQtQtQtQtQtQtQtQt.#.aQtQtQtQtQtQtQtQtQt",
"QtQtQtQtQtQtQtQtQtQtQtQtQtQtQtQtQtQtQtQtQtQtQtQtQtQtQtQtQtQtQtQtQtQtQtQtQtQtQtQtQtQtQtQtQtQtQtQtQtQtQtQtQt.b.cQtQtQtQtQtQtQtQtQt",
"QtQtQtQtQtQtQtQtQtQtQtQtQtQtQtQtQtQtQtQtQtQtQtQtQtQtQtQtQtQtQtQtQtQtQtQtQtQtQtQtQtQtQtQtQtQtQtQtQtQtQtQtQt.d.e.fQtQtQtQtQtQtQtQt",
"QtQtQtQtQtQtQtQtQtQtQtQtQtQtQtQtQtQtQtQtQtQtQtQtQtQtQtQtQtQtQtQtQtQtQtQtQtQtQtQtQtQtQtQtQtQtQtQtQtQtQtQtQt.g.h.i.jQtQtQtQtQtQtQt",
"QtQtQtQtQtQtQtQtQtQtQtQtQtQtQtQtQtQtQtQtQtQtQtQtQtQtQtQtQtQtQtQtQtQtQtQtQtQtQtQtQtQtQtQtQtQtQtQtQtQtQtQtQt.k.l.m.nQtQtQtQtQtQtQt",
"QtQtQtQtQtQtQtQtQtQtQtQtQtQtQtQtQtQtQtQtQtQtQtQtQtQtQtQtQtQtQtQtQtQtQtQtQtQtQtQtQtQtQtQtQtQtQtQtQtQtQtQtQt.o.p.q.r.sQtQtQtQtQtQt",
"QtQtQtQtQtQtQtQtQtQtQtQtQtQtQtQtQtQtQtQtQtQtQtQtQtQtQtQtQtQtQtQtQtQtQtQtQtQtQtQtQtQtQtQtQtQtQtQtQtQtQtQtQt.t.u.v.w.xQtQtQtQtQtQt",
"QtQtQtQtQtQtQtQtQtQtQtQtQtQtQtQtQtQtQtQtQtQtQtQtQtQtQtQtQtQtQtQtQtQtQtQtQtQtQtQtQtQtQtQtQtQtQtQtQtQtQtQtQt.y.z.A.B.C.DQtQtQtQtQt",
"QtQtQtQtQtQtQtQtQtQtQtQtQtQtQtQtQtQtQtQtQtQtQtQtQtQtQtQtQtQtQtQtQtQtQtQtQtQtQtQtQtQtQtQtQtQtQtQtQtQtQtQtQt.E.F.G.H.I.JQtQtQtQtQt",
"QtQtQtQtQtQtQtQtQtQtQtQtQtQtQtQtQtQtQtQtQtQtQtQtQtQtQtQtQtQtQtQtQtQtQtQtQtQtQtQtQtQtQtQtQtQtQtQtQtQtQtQtQt.K.L.M.N.O.P.QQtQtQtQt",
"QtQtQtQtQtQtQtQtQtQtQtQtQtQtQtQtQtQtQtQtQtQtQtQtQtQtQtQtQtQtQtQtQtQtQtQtQtQtQtQtQtQtQtQtQtQtQtQtQtQtQtQtQt.R.F.S.T.U.V.W.XQtQtQt",
"QtQtQtQtQtQtQtQtQtQtQtQtQtQtQtQtQtQtQtQtQtQtQtQtQtQtQtQtQtQtQtQtQtQtQtQtQtQtQtQtQtQtQtQtQtQtQtQtQtQtQtQtQt.Y.Z.0.1.2.3.4.5QtQtQt",
"QtQtQtQtQtQtQtQtQtQtQtQtQtQtQtQtQtQtQtQtQtQtQtQtQtQtQtQtQtQtQtQtQtQtQtQtQtQtQtQtQtQtQtQtQtQtQtQtQtQtQtQtQt.6.7.8.9#.###a#b#cQtQt",
"QtQtQtQtQtQtQtQtQtQtQtQtQtQtQtQtQtQtQtQtQtQtQtQtQtQtQtQtQtQtQtQtQtQtQtQtQtQtQtQtQtQtQtQtQtQtQtQtQtQtQtQtQt#d#e#f#g#h#i#j#k#lQtQt",
"QtQtQtQtQtQtQtQtQtQtQtQtQtQtQtQtQtQtQtQtQtQtQtQtQtQtQtQtQtQtQtQtQtQtQtQtQtQtQtQtQtQtQtQtQtQtQtQtQtQtQtQtQt.y#e#m#n#o#p#q#r#s#tQt",
"QtQtQtQtQtQtQtQtQtQtQtQtQtQtQtQtQtQtQtQtQtQtQtQtQtQtQtQtQtQtQtQtQtQtQtQtQtQtQtQtQtQtQtQtQtQtQtQtQtQtQtQtQt#u#v#w#x#y#y#z#A#B#C#D",
"QtQtQtQtQtQtQtQtQtQtQtQtQtQtQtQtQtQtQtQtQtQtQtQtQtQtQtQtQtQtQtQtQtQtQtQtQtQtQtQtQtQtQtQtQtQtQtQtQtQtQtQtQt#E#F#G#H#y#I#J#K#L#M#N",
"QtQtQtQtQtQtQtQtQtQtQtQtQtQtQtQtQtQtQtQtQtQtQtQtQtQtQtQtQtQtQtQtQtQtQtQtQtQtQtQtQtQtQtQtQtQtQtQtQtQtQtQtQt#O#P#Q#y#y#R#S#T#U.C#V",
"QtQtQtQtQtQtQtQtQtQtQtQtQtQtQtQtQtQtQtQtQtQtQtQtQtQtQtQtQtQtQtQtQtQtQtQtQtQtQtQtQtQtQtQtQtQtQtQtQtQtQtQtQt#W#X#Y#y#Y#Z#0#1#2#3#V",
"QtQtQtQtQtQtQtQtQtQtQtQtQtQtQtQtQtQtQtQtQtQtQtQtQtQtQtQtQtQtQtQtQtQtQtQtQtQtQtQtQtQtQtQtQtQtQtQtQtQtQtQtQt#4#5#Y#y#6#J#7#8#9a.a#",
"QtQtQtQtQtQtQtQtQtQtQtQtQtQtQtQtQtQtQtQtQtQtQtQtQtQtQtQtQtQtQtQtQtQtQtQtQtQtQtQtQtQtQtQtQtQtQtQtQtQtQtQtQtaaab#Y#y#6acadaeafagah",
"QtQtQtQtQtQtQtQtQtQtQtQtQtQtQtQtQtQtQtQtQtQtQtQtQtQtQtQtQtQtQtQtQtQtQtQtQtQtQtQtQtQtQtQtQtQtQtQtQtQtQtQtQtaiajak#y.7alamanao#3ap",
"QtQtQtQtQtQtQtQtQtQtQtQtQtQtQtQtQtQtQtQtQtQtQtQtQtQtQtQtQtQtQtQtQtQtQtQtQtQtQtQtQtQtQtQtQtQtQtQtQtQtQtQtQtaqarasatau#0.T.Gavawa#",
"QtQtQtQtQtQtQtQtQtQtQtQtQtQtQtQtQtQtQtQtQtQtQtQtQtQtQtQtQtQtQtQtQtQtQtQtQtQtQtQtQtQtQtQtQtQtQtQtQtQtQtQtQtaxayazaAaBaCaDaEaFaGa#",
"QtQtQtQtQtQtQtQtQtQtQtQtQtQtQtQtQtQtQtQtQtQtQtQtQtQtQtQtQtQtQtQtQtQtQtQtQtQtQtQtQtQtQtQtQtQtQtQtQtQtQtQtQtaHaIaJaK#SaLaMaNaOaPah",
"QtQtQtQtQtQtQtQtQtQtQtQtQtQtQtQtQtQtQtQtQtQtQtQtQtQtQtQtQtQtQtQtQtQtQtQtQtQtQtQtQtQtQtQtQtQtQtQtQtQtQtQtQtaQaRaSaTaUaVaWaX#baYaZ",
"QtQtQtQtQtQtQtQtQtQtQtQtQtQtQtQtQtQtQtQtQtQtQtQtQtQtQtQtQtQtQtQtQtQtQtQtQtQtQtQtQtQtQtQtQtQtQtQtQtQtQtQtQta0a1a2a3a4.Ta5af#ba6a7",
"QtQtQtQtQtQtQtQtQtQtQtQtQtQtQtQtQtQtQtQtQtQtQtQtQtQtQtQtQtQtQtQtQtQtQtQtQtQtQtQtQtQtQtQtQtQtQtQtQtQtQtQtQta8a9b.b#babbbc#2#bbdbe",
"QtQtQtQtQtQtQtQtQtQtQtQtQtQtQtQtQtQtQtQtQtQtQtQtQtQtQtQtQtQtQtQtQtQtQtQtQtQtQtQtQtQtQtQtQtQtQtQtQtQtQtQtQtbfbgbhbibj.Mbkblbmbna#",
"QtQtQtQtQtQtQtQtQtQtQtQtQtQtQtQtQtQtQtQtQtQtQtQtQtQtQtQtQtQtQtQtQtQtQtQtQtQtQtQtQtQtQtQtQtQtQtQtQtQtQtQtQtbobpbqbrbsbtbuaFaObvaZ",
"QtQtQtQtQtQtQtQtQtQtQtQtQtQtQtQtQtQtQtQtQtQtQtQtQtQtQtQtQtQtQtQtQtQtQtQtQtQtQtQtQtQtQtQtQtQtQtQtQtQtQtQtQtbwbxbybzbAan#9.N#bbBaZ",
"QtQtQtQtQtQtQtQtQtQtQtQtQtQtQtQtQtQtQtQtQtQtQtQtQtQtQtQtQtQtQtQtQtQtQtQtQtQtQtQtQtQtQtQtQtQtQtQtQtQtQtQtQtbCbDbEbFbGbcaf.N.NbHaZ",
"QtQtQtQtQtQtQtQtQtQtQtQtQtQtQtQtQtQtQtQtQtQtQtQtQtQtQtQtQtQtQtQtQtQtQtQtQtQtQtQtQtQtQtQtQtQtQtQtQtQtQtQtQtbIbJbKbLbMaEblbN.NbOa7",
"QtQtQtQtQtQtQtQtQtQtQtQtQtQtQtQtQtQtQtQtQtQtQtQtQtQtQtQtQtQtQtQtQtQtQtQtQtQtQtQtQtQtQtQtQtQtQtQtQtQtQtQtQtbPbQbRbSbTbkaoaObUbVbe",
"QtQtQtQtQtQtQtQtQtQtQtQtQtQtQtQtQtQtQtQtQtQtQtQtQtQtQtQtQtQtQtQtQtQtQtQtQtQtQtQtQtQtQtQtQtQtQtQtQtQtQtQtQtbWbXbYbZb0b1bUbNb2b3a#",
"QtQtQtQtQtQtQtQtQtQtQtQtQtQtQtQtQtQtQtQtQtQtQtQtQtQtQtQtQtQtQtQtQtQtQtQtQtQtQtQtQtQtQtQtQtQtQtQtQtQtQtQtQtb4b5b6b7b8aXbUbNb2b9a#",
"QtQtQtQtQtQtQtQtQtQtQtQtQtQtQtQtQtQtQtQtQtQtQtQtQtQtQtQtQtQtQtQtQtQtQtQtQtQtQtQtQtQtQtQtQtQtQtQtQtQtQtQtQtc.c#aCcacbccbN.Navcda#",
"QtQtQtQtQtQtQtQtQtQtQtQtQtQtQtQtQtQtQtQtQtQtQtQtQtQtQtQtQtQtQtQtQtQtQtQtQtQtQtQtQtQtQtQtQtQtQtQtQtQtQtQtQtce#IcfcgchavaO.Navcia#",
"QtQtQtQtQtQtQtQtQtQtQtQtQtQtQtQtQtQtQtQtQtQtQtQtQtQtQtQtQtQtQtQtQtQtQtQtQtQtQtQtQtQtQtQtQtQtQtQtQtQtQtQtQtcjckclaWaNav#baF#2cmcn",
"QtQtQtQtQtQtQtQtQtQtQtQtQtQtQtQtQtQtQtQtQtQtQtQtQtQtQtQtQtQtQtQtQtQtQtQtQtQtQtQtQtQtQtQtQtQtQtQtQtQtQtQtQtco#Z.Ta5#9b2#baF#2cpcn",
"QtQtQtQtQtQtQtQtQtQtQtQtQtQtQtQtQtQtQtQtQtQtQtQtQtQtQtQtQtQtQtQtQtQtQtQtQtQtQtQtQtQtQtQtQtQtQtQtQtQtQtQtQtcq#hcrbccc.N#bb2cscta#",
"QtQtQtQtQtQtQtQtQtQtQtQtQtQtQtQtQtQtQtQtQtQtQtQtQtQtQtQtQtQtQtQtQtQtQtQtQtQtQtQtQtQtQtQtQtQtQtQtQtQtQtQtQtcu#hcvcg#2bN#bavcccwa#",
"QtQtQtQtQtQtQtQtQtQtQtQtQtQtQtQtQtQtQtQtQtQtQtQtQtQtQtQtQtQtQtQtQtQtQtQtQtQtQtQtQtQtQtQtQtQtQtQtQtQtQtQtQtcxcyczaNblaOaOavafcAah",
"QtQtQtQtQtQtQtQtQtQtQtQtQtQtQtQtQtQtQtQtQtQtQtQtQtQtQtQtQtQtQtQtQtQtQtQtQtQtQtQtQtQtQtQtQtQtQtQtQtQtQtQtQtcBcCcDbuaoaOaOccafcEah",
"QtQtQtQtQtQtQtQtQtQtQtQtQtQtQtQtQtQtQtQtQtQtQtQtQtQtQtQtQtQtQtQtQtQtQtQtQtQtQtQtQtQtQtQtQtQtQtQtQtQtQtQtQtcFcGcH#2aFaObNcccIcJcK",
"QtQtQtQtQtQtQtQtQtQtQtQtQtQtQtQtQtQtQtQtQtQtQtQtQtQtQtQtQtQtQtQtQtQtQtQtQtQtQtQtQtQtQtQtQtQtQtQtQtQtQtQtQtcLcMcNcO.N#bbNafaXcPcQ",
"QtQtQtQtQtQtQtQtQtQtQtQtQtQtQtQtQtQtQtQtQtQtQtQtQtQtQtQtQtQtQtQtQtQtQtQtQtQtQtQtQtQtQtQtQtQtQtQtQtQtQtQtQtQtcRcScTbNaO.NaXaXaGa#",
"QtQtQtQtQtQtQtQtQtQtQtQtQtQtQtQtQtQtQtQtQtQtQtQtQtQtQtQtQtQtQtQtQtQtQtQtQtQtQtQtQtQtQtQtQtQtQtQtQtQtQtQtQtQtcUcVcWcXaO.N#9aXcYah",
"QtQtQtQtQtQtQtQtQtQtQtQtQtQtQtQtQtQtQtQtQtQtQtQtQtQtQtQtQtQtQtQtQtQtQtQtQtQtQtQtQtQtQtQtQtQtQtQtQtQtQtQtQtQtQtcZc0c1bNb2bu#9c2aZ",
"QtQtQtQtQtQtQtQtQtQtQtQtQtQtQtQtQtQtQtQtQtQtQtQtQtQtQtQtQtQtQtQtQtQtQtQtQtQtQtQtQtQtQtQtQtQtQtQtQtQtQtQtQtQtQtc3c4c5c6aFbu#9c7aZ",
"QtQtQtQtQtQtQtQtQtQtQtQtQtQtQtQtQtQtQtQtQtQtQtQtQtQtQtQtQtQtQtQtQtQtQtQtQtQtQtQtQtQtQtQtQtQtQtQtQtQtQtQtQtQtQtQtc8c9d.d#bk#9.Wap",
"QtQtQtQtQtQtQtQtQtQtQtQtQtQtQtQtQtQtQtQtQtQtQtQtQtQtQtQtQtQtQtQtQtQtQtQtQtQtQtQtQtQtQtQtQtQtQtQtQtQtQtQtQtQtQtQtQtdadbdcbub1dda#",
"QtQtQtQtQtQtQtQtQtQtQtQtQtQtQtQtQtQtQtQtQtQtQtQtQtQtQtQtQtQtQtQtQtQtQtQtQtQtQtQtQtQtQtQtQtQtQtQtQtQtQtQtQtQtQtQtQtdedbdfdgbudhaZ",
"QtQtQtQtQtQtQtQtQtQtQtQtQtQtQtQtQtQtQtQtQtQtQtQtQtQtQtQtQtQtQtQtQtQtQtQtQtQtQtQtQtQtQtQtQtQtQtQtQtQtQtQtQtQtQtQtQtQtdicsdjdkdlaZ",
"QtQtQtQtQtQtQtQtQtQtQtQtQtQtQtQtQtQtQtQtQtQtQtQtQtQtQtQtQtQtQtQtQtQtQtQtQtQtQtQtQtQtQtQtQtQtQtQtQtQtQtQtQtQtQtQtQtQtdmdndodpdqaZ",
"QtQtQtQtQtQtQtQtQtQtQtQtQtQtQtQtQtQtQtQtQtQtQtQtQtQtQtQtQtQtQtQtQtQtQtQtQtQtQtQtQtQtQtQtQtQtQtQtQtQtQtQtQtQtQtQtQtQtQtdrdsdtduaZ",
"QtQtQtQtQtQtQtQtQtQtQtQtQtQtQtQtQtQtQtQtQtQtQtQtQtQtQtQtQtQtQtQtQtQtQtQtQtQtQtQtQtQtQtQtQtQtQtQtQtQtQtQtQtQtQtQtQtQtQtQtdvdwdxdy",
"QtQtQtQtQtQtQtQtQtQtQtQtQtQtQtQtQtQtQtQtQtQtQtQtQtQtQtQtQtQtQtQtQtQtQtQtQtQtQtQtQtQtQtQtQtQtQtQtQtQtQtQtQtQtQtQtQtQtQtQtdzdAdB#V",
"QtQtQtQtQtQtQtQtQtQtQtQtQtQtQtQtQtQtQtQtQtQtQtQtQtQtQtQtQtQtQtQtQtQtQtQtQtQtQtQtQtQtQtQtQtQtQtQtQtQtQtQtQtQtQtQtQtQtQtQtQtdCdD#V",
"QtQtQtQtQtQtQtQtQtQtQtQtQtQtQtQtQtQtQtQtQtQtQtQtQtQtQtQtQtQtQtQtQtQtQtQtQtQtQtQtQtQtQtQtQtQtQtQtQtQtQtQtQtQtQtQtQtQtQtQtQtdEdF#V",
"QtQtQtQtQtQtQtQtQtQtQtQtQtQtQtQtQtQtQtQtQtQtQtQtQtQtQtQtQtQtQtQtQtQtQtQtQtQtQtQtQtQtQtQtQtQtQtQtQtQtQtQtQtQtQtQtQtQtQtQtQtQtdG#V",
"QtQtQtQtQtQtQtQtQtQtQtQtQtQtQtQtQtQtQtQtQtQtQtQtQtQtQtQtQtQtQtQtQtQtQtQtQtQtQtQtQtQtQtQtQtQtQtQtQtQtQtQtQtQtQtQtQtQtQtQtQtQtQtdH",
"QtQtQtQtQtQtQtQtQtQtQtQtQtQtQtQtQtQtQtQtQtQtQtQtQtQtQtQtQtQtQtQtQtQtQtQtQtQtQtQtQtQtQtQtQtQtQtQtQtQtQtQtQtQtQtQtQtQtQtQtQtQtQtdI",
"QtQtQtQtQtQtQtQtQtQtQtQtQtQtQtQtQtQtQtQtQtQtQtQtQtQtQtQtQtQtQtQtQtQtQtQtQtQtQtQtQtQtQtQtQtQtQtQtQtQtQtQtQtQtQtQtQtQtQtQtQtQtQtQt"};
